HIERARCHY
ROOT hip
{
  OFFSET 0 0 0
  CHANNELS 6 Xposition Yposition Zposition Zrotation Yrotation Xrotation
  JOINT abdomen
  {
    OFFSET 0 20.6881 -0.73152
    CHANNELS 3 Zrotation Xrotation Yrotation
    JOINT chest
    {
      OFFSET 0 11.7043 -0.48768
      CHANNELS 3 Zrotation Xrotation Yrotation
      JOINT neck
      {
        OFFSET 0 22.1894 -2.19456
        CHANNELS 3 Zrotation Xrotation Yrotation
        JOINT head
        {
          OFFSET -0.24384 7.07133 1.2192
          CHANNELS 3 Zrotation Xrotation Yrotation
          JOINT leftEye
          {
            OFFSET 4.14528 8.04674 8.04672
            CHANNELS 3 Zrotation Xrotation Yrotation
            End Site
            {
              OFFSET 1 0 0
            }
          }
          JOINT rightEye
          {
            OFFSET -3.6576 8.04674 8.04672
            CHANNELS 3 Zrotation Xrotation Yrotation
            End Site
            {
              OFFSET 1 0 0
            }
          }
        }
      }
      JOINT rCollar
      {
        OFFSET -2.68224 19.2634 -4.8768
        CHANNELS 3 Zrotation Xrotation Yrotation
        JOINT rShldr
        {
          OFFSET -8.77824 -1.95073 1.46304
          CHANNELS 3 Zrotation Xrotation Yrotation
          JOINT rForeArm
          {
            OFFSET -28.1742 -1.7115 0.48768
            CHANNELS 3 Zrotation Xrotation Yrotation
            JOINT rHand
            {
              OFFSET -22.5879 0.773209 7.07136
              CHANNELS 3 Zrotation Xrotation Yrotation
              JOINT rThumb1
              {
                OFFSET -1.2192 -0.487915 3.41376
                CHANNELS 3 Zrotation Xrotation Yrotation
                JOINT rThumb2
                {
                  OFFSET -3.37035 -0.52449 3.41376
                  CHANNELS 3 Zrotation Xrotation Yrotation
                  End Site
                  {
                    OFFSET -1.78271 -1.18214 1.43049
                  }
                }
              }
              JOINT rIndex1
              {
                OFFSET -7.75947 0.938293 5.60832
                CHANNELS 3 Zrotation Xrotation Yrotation
                JOINT rIndex2
                {
                  OFFSET -2.54057 -0.884171 1.56538
                  CHANNELS 3 Zrotation Xrotation Yrotation
                  End Site
                  {
                    OFFSET -1.62519 -0.234802 1.16502
                  }
                }
              }
              JOINT rMid1
              {
                OFFSET -8.24714 1.18213 3.41376
                CHANNELS 3 Zrotation Xrotation Yrotation
                JOINT rMid2
                {
                  OFFSET -3.10165 -0.590103 1.0647
                  CHANNELS 3 Zrotation Xrotation Yrotation
                  End Site
                  {
                    OFFSET -2.48547 -0.328903 0.83742
                  }
                }
              }
              JOINT rRing1
              {
                OFFSET -8.82822 0.546677 1.51678
                CHANNELS 3 Zrotation Xrotation Yrotation
                JOINT rRing2
                {
                  OFFSET -2.60934 -0.819778 -0.0198488
                  CHANNELS 3 Zrotation Xrotation Yrotation
                  End Site
                  {
                    OFFSET -2.33842 -0.294052 0.168128
                  }
                }
              }
              JOINT rPinky1
              {
                OFFSET -8.27202 -0.0477905 -0.4584
                CHANNELS 3 Zrotation Xrotation Yrotation
                JOINT rPinky2
                {
                  OFFSET -1.82734 -0.647385 -0.700984
                  CHANNELS 3 Zrotation Xrotation Yrotation
                  End Site
                  {
                    OFFSET -1.69225 -0.51767 -0.607171
                  }
                }
              }
            }
          }
        }
      }
      JOINT lCollar
      {
        OFFSET 2.68224 19.2634 -4.8768
        CHANNELS 3 Zrotation Xrotation Yrotation
        JOINT lShldr
        {
          OFFSET 8.77824 -1.95073 1.46304
          CHANNELS 3 Zrotation Xrotation Yrotation
          JOINT lForeArm
          {
            OFFSET 28.1742 -1.7115 0.48768
            CHANNELS 3 Zrotation Xrotation Yrotation
            JOINT lHand
            {
              OFFSET 22.5879 0.773209 7.07136
              CHANNELS 3 Zrotation Xrotation Yrotation
              JOINT lThumb1
              {
                OFFSET 1.2192 -0.487915 3.41376
                CHANNELS 3 Zrotation Xrotation Yrotation
                JOINT lThumb2
                {
                  OFFSET 3.37035 -0.52449 3.41376
                  CHANNELS 3 Zrotation Xrotation Yrotation
                  End Site
                  {
                    OFFSET 1.78271 -1.18214 1.43049
                  }
                }
              }
              JOINT lIndex1
              {
                OFFSET 7.75947 0.938293 5.60832
                CHANNELS 3 Zrotation Xrotation Yrotation
                JOINT lIndex2
                {
                  OFFSET 2.54057 -0.884171 1.56538
                  CHANNELS 3 Zrotation Xrotation Yrotation
                  End Site
                  {
                    OFFSET 1.62519 -0.234802 1.16502
                  }
                }
              }
              JOINT lMid1
              {
                OFFSET 8.24714 1.18213 3.41376
                CHANNELS 3 Zrotation Xrotation Yrotation
                JOINT lMid2
                {
                  OFFSET 3.10165 -0.590103 1.0647
                  CHANNELS 3 Zrotation Xrotation Yrotation
                  End Site
                  {
                    OFFSET 2.48547 -0.328903 0.83742
                  }
                }
              }
              JOINT lRing1
              {
                OFFSET 8.82822 0.546677 1.51678
                CHANNELS 3 Zrotation Xrotation Yrotation
                JOINT lRing2
                {
                  OFFSET 2.60934 -0.819778 -0.0198488
                  CHANNELS 3 Zrotation Xrotation Yrotation
                  End Site
                  {
                    OFFSET 2.33842 -0.294052 0.168128
                  }
                }
              }
              JOINT lPinky1
              {
                OFFSET 8.27202 -0.0477905 -0.4584
                CHANNELS 3 Zrotation Xrotation Yrotation
                JOINT lPinky2
                {
                  OFFSET 1.82734 -0.647385 -0.700984
                  CHANNELS 3 Zrotation Xrotation Yrotation
                  End Site
                  {
                    OFFSET 1.69225 -0.51767 -0.607171
                  }
                }
              }
            }
          }
        }
      }
    }
  }
  JOINT rButtock
  {
    OFFSET -8.77824 4.35084 1.2192
    CHANNELS 3 Zrotation Xrotation Yrotation
    JOINT rThigh
    {
      OFFSET 0 -1.70687 -2.19456
      CHANNELS 3 Zrotation Xrotation Yrotation
      JOINT rShin
      {
        OFFSET 0 -36.8199 0.73152
        CHANNELS 3 Zrotation Xrotation Yrotation
        JOINT rFoot
        {
          OFFSET 0.73152 -45.1104 -5.12064
          CHANNELS 3 Zrotation Xrotation Yrotation
          End Site
          {
            OFFSET -1.1221 -3.69964 12.103
          }
        }
      }
    }
  }
  JOINT lButtock
  {
    OFFSET 8.77824 4.35084 1.2192
    CHANNELS 3 Zrotation Xrotation Yrotation
    JOINT lThigh
    {
      OFFSET 0 -1.70687 -2.19456
      CHANNELS 3 Zrotation Xrotation Yrotation
      JOINT lShin
      {
        OFFSET 0 -36.8199 0.73152
        CHANNELS 3 Zrotation Xrotation Yrotation
        JOINT lFoot
        {
          OFFSET -0.73152 -45.1104 -5.12064
          CHANNELS 3 Zrotation Xrotation Yrotation
          End Site
          {
            OFFSET 1.1221 -3.69964 12.103
          }
        }
      }
    }
  }
}
MOTION
Frames:	4
Frame Time:	0.00833333
40.0094 125.466 -121.111 9.53 -76.6998 18.6842 -12.6833 -15.1696 2.9623 -2.88216 -44.3184 -1.28212 4.89532 27.2699 7.97367 -11.9361 52.5371 12.9637 -0.0 0.0 0.0 -0.0 0.0 0.0 1.12405e-13 1.12039e-12 7.59792e-14 106.433 20.2184 -59.1805 -17.7824 -10.4547 33.534 -0.0409482 5.7675 0.813343 -5.76802e-10 -9.16097e-10 1.29029e-10 -9.95671e-10 -1.58477e-09 2.26546e-10 -5.76791e-10 -9.16085e-10 1.2901e-10 7.73091 5.47488 0.417314 -5.76804e-10 -9.16093e-10 1.29026e-10 2.90554 0.965183 0.102902 -5.76798e-10 -9.16093e-10 1.29025e-10 10.2786 0.731801 0.0259123 -5.76804e-10 -9.16094e-10 1.29029e-10 2.22167 -0.733487 -0.20892 1.123e-13 1.1204e-12 7.58457e-14 -101.433 32.5564 53.7833 20.1929 -13.2562 -39.1501 0.0456429 -6.09158 0.85938 -1.47001e-09 2.67906e-09 8.15597e-10 -2.54873e-09 4.63756e-09 1.40905e-09 -1.47002e-09 2.67906e-09 8.15607e-10 -7.73091 5.47488 -0.417314 -1.47001e-09 2.67907e-09 8.15606e-10 -2.90554 0.965183 -0.102902 -1.47002e-09 2.67906e-09 8.15599e-10 -10.2786 0.731801 -0.0259123 -1.47001e-09 2.67907e-09 8.15586e-10 -2.22167 -0.733487 0.20892 -2.03217e-16 0.0 -3.88251e-19 5.03807 -58.8553 19.8884 -0.60498 50.4503 1.10503 -2.58503 -10.4223 -7.08895 2.03217e-16 0.0 3.88251e-19 -20.7823 -49.9469 -23.2548 0.181699 33.9816 -0.536048 1.65686 -9.44711 5.02698
39.9591 125.568 -121.391 8.7003 -75.3739 19.6681 -12.5131 -15.1593 5.33405 -5.75659 -44.0765 -1.64949 6.04996 26.7926 6.65643 -8.61974 52.8396 9.60014 -0.0 0.0 0.0 -0.0 0.0 0.0 -8.32517e-14 1.32897e-13 -5.7493e-14 106.421 17.0272 -58.3503 -17.8341 -10.5094 33.649 -0.04283 5.8981 0.831891 9.58338e-10 -1.07156e-09 4.91416e-11 1.65947e-09 -1.85232e-09 7.74676e-11 9.58344e-10 -1.07155e-09 4.91301e-11 7.73091 5.47488 0.417314 9.58338e-10 -1.07156e-09 4.9138e-11 2.90554 0.965183 0.102902 9.58343e-10 -1.07156e-09 4.91385e-11 10.2786 0.731801 0.0259123 9.58333e-10 -1.07156e-09 4.91411e-11 2.22167 -0.733487 -0.20892 -8.3359e-14 1.32902e-13 -5.76681e-14 -101.299 36.0036 54.184 20.1617 -13.2164 -39.0739 0.0490797 -6.31294 0.890865 -9.70067e-10 2.37214e-09 7.76279e-10 -1.68601e-09 4.10256e-09 1.34106e-09 -9.70076e-10 2.37214e-09 7.76289e-10 -7.73091 5.47488 -0.417314 -9.70066e-10 2.37215e-09 7.76286e-10 -2.90554 0.965183 -0.102902 -9.70073e-10 2.37214e-09 7.76283e-10 -10.2786 0.731801 -0.0259123 -9.70059e-10 2.37214e-09 7.76269e-10 -2.22167 -0.733487 0.20892 -2.03217e-16 0.0 -3.88251e-19 5.47559 -58.5087 21.5556 -0.570851 49.3453 1.04983 -2.28 -11.0127 -5.93426 2.03217e-16 0.0 3.88251e-19 -20.7562 -49.8707 -23.8943 0.17821 33.66 -0.531158 1.52067 -9.48093 4.40966
39.8993 125.675 -121.678 8.0011 -74.0529 20.5119 -12.3326 -15.133 7.58583 -8.44792 -43.7323 -1.94763 7.11774 26.2808 5.4213 -5.41377 53.0253 6.35746 -0.0 0.0 0.0 -0.0 0.0 0.0 -1.80849e-13 -4.6754e-13 -1.14401e-13 106.456 14.0779 -57.6231 -17.886 -10.5646 33.7649 -0.04419 5.98873 0.84477 1.81656e-09 -9.68272e-10 4.72535e-11 3.14398e-09 -1.6728e-09 6.82261e-11 1.81656e-09 -9.6827e-10 4.72471e-11 7.73091 5.47488 0.417314 1.81656e-09 -9.68273e-10 4.72503e-11 2.90554 0.965183 0.102902 1.81657e-09 -9.68275e-10 4.72511e-11 10.2786 0.731801 0.0259123 1.81655e-09 -9.68275e-10 4.72535e-11 2.22167 -0.733487 -0.20892 -1.80951e-13 -4.67544e-13 -1.14599e-13 -101.21 39.3103 54.6291 20.1259 -13.1709 -38.9863 0.0523901 -6.51796 0.920052 -6.59997e-10 1.88165e-09 6.69971e-10 -1.14996e-09 3.25166e-09 1.1571e-09 -6.60005e-10 1.88165e-09 6.69981e-10 -7.73091 5.47488 -0.417314 -6.59995e-10 1.88166e-09 6.69977e-10 -2.90554 0.965183 -0.102902 -6.60002e-10 1.88165e-09 6.69975e-10 -10.2786 0.731801 -0.0259123 -6.59988e-10 1.88165e-09 6.69962e-10 -2.22167 -0.733487 0.20892 -2.03217e-16 0.0 -3.88251e-19 5.86005 -58.1267 23.1471 -0.539297 48.2587 0.997785 -1.95464 -11.5973 -4.75905 2.03217e-16 0.0 3.88251e-19 -20.7183 -49.7759 -24.5484 0.174688 33.3319 -0.525777 1.39201 -9.54789 3.8178
39.829 125.784 -121.972 7.3821 -72.723 21.2627 -12.1369 -15.0934 9.71493 -10.9501 -43.2726 -2.17366 8.10367 25.7291 4.27109 -2.35591 53.1109 3.26503 -0.0 0.0 0.0 -0.0 0.0 0.0 -1.22435e-13 -4.83154e-13 -5.63248e-14 106.537 11.3463 -56.8793 -17.939 -10.6213 33.8836 -0.0449459 6.03701 0.851635 1.56078e-09 -4.76747e-10 1.2704e-10 2.70184e-09 -8.22467e-10 2.08218e-10 1.56078e-09 -4.76746e-10 1.27036e-10 7.73091 5.47488 0.417314 1.56078e-09 -4.76748e-10 1.27039e-10 2.90554 0.965183 0.102902 1.56078e-09 -4.7675e-10 1.27039e-10 10.2786 0.731801 0.0259123 1.56077e-09 -4.7675e-10 1.27042e-10 2.22167 -0.733487 -0.20892 -1.22516e-13 -4.83171e-13 -5.65205e-14 -101.136 42.4545 55.0222 20.0845 -13.1185 -38.8853 0.055346 -6.69641 0.945475 -7.17927e-10 1.08664e-09 4.57878e-10 -1.24769e-09 1.87629e-09 7.89632e-10 -7.17935e-10 1.08664e-09 4.57887e-10 -7.73091 5.47488 -0.417314 -7.17925e-10 1.08665e-09 4.57884e-10 -2.90554 0.965183 -0.102902 -7.1793e-10 1.08664e-09 4.57881e-10 -10.2786 0.731801 -0.0259123 -7.17919e-10 1.08664e-09 4.57867e-10 -2.22167 -0.733487 0.20892 -2.03217e-16 0.0 -3.88251e-19 6.19108 -57.7037 24.6796 -0.509284 47.173 0.947355 -1.58621 -12.1977 -3.48292 2.03217e-16 0.0 3.88251e-19 -20.662 -49.6531 -25.2332 0.171064 32.988 -0.519705 1.27268 -9.63977 3.26443
